<svg xmlns="http://www.w3.org/2000/svg" viewBox="0 0 150.5 167.12"><defs><style>.cls-1{fill:none;stroke:#fff;stroke-miterlimit:10;stroke-width:0.4px;}</style></defs><title>Ресурс 1</title><g id="Слой_2" data-name="Слой 2"><g id="Слой_1-2" data-name="Слой 1"><path class="cls-1" d="M17.29,8.77V24.65l-.5.5-4.4,4.4L9.19,26.33,7.51,24.65V1.47L.2,8.77v18.9l1.1,1.1L4,31.5l3.21,3.21L4.4,37.54,2.33,39.62.26,41.68a.38.38,0,0,0-.06.07V153.3L7.51,146V44.77l4.89-4.89,4.86,4.86,0,0V146l7.31,7.31V41.74l-2.17-2.17-4.86-4.86,4.4-4.4,1.15-1.15.83-.83.41-.41.21-.21s0-.08,0-.13V8.77L17.29,1.47Z"/><polygon class="cls-1" points="112 8.77 112 14.15 110.68 15.47 102.7 23.45 98.71 27.43 96.4 29.75 95.4 30.75 94.9 31.25 94.9 31.95 94.9 34.52 94.9 139.97 102.21 132.66 102.21 34.52 102.21 34.27 103.88 32.6 107.87 28.61 115.84 20.64 119.3 17.18 119.3 8.77 112 1.47 112 8.77"/><polygon class="cls-1" points="112 115.27 119.3 122.57 119.3 115.27 119.3 50.87 119.3 37.9 119.3 30.6 112 37.9 112 50.87 112 115.27"/><polygon class="cls-1" points="80.43 8.77 80.43 14.15 79.11 15.47 71.14 23.45 67.15 27.43 64.83 29.75 63.83 30.75 63.34 31.25 63.34 31.95 63.34 34.52 63.34 131.68 63.34 146 63.34 153.3 70.64 146 70.64 131.68 70.64 34.52 70.64 34.27 72.31 32.6 76.3 28.61 84.28 20.64 87.73 17.18 87.73 8.77 80.43 1.47 80.43 8.77"/><polygon class="cls-1" points="80.43 50.87 80.43 132.66 87.73 139.97 87.73 132.66 87.73 50.87 87.73 37.9 87.73 30.6 80.43 37.9 80.43 50.87"/><path class="cls-1" d="M141.37.2H133.7L126.4,7.51h11.83l-2.07,2.07-5.24,5.24-2.76,2.76-1.31,1.31-.33.33c-.09.12-.27.2-.22.37V129.38a1.49,1.49,0,0,0,0,.23l.16.17.33.33,8.19,8.19,10.13,10.13,5.17,5.17v-.3l0,0V30.6L143,37.9V136l-2.84-2.84-6.55-6.55V22.46L136.08,20l5.24-5.24,5.24-5.24,2.05-2.05Z"/><path class="cls-1" d="M56,39.22l.11-.11s0-.1,0-.15V8.77L48.86,1.47v34.6l-.23.23-8.27,8.27L36.23,48.7l-2.07,2.07-1.81,1.81-.52.52c-.13.07-.06.22-.08.33V153.3L39.07,146V56.19l9.79-9.79V166.64l7.31-7.31V40.27l-.58-.58.24-.24Z"/><polygon class="cls-1" points="31.77 23.77 31.77 32.68 31.77 39.99 39.07 32.68 39.07 23.77 39.07 1.47 31.77 8.77 31.77 23.77"/></g></g></svg>