<svg xmlns="http://www.w3.org/2000/svg" viewBox="0 0 31 31">
  <defs>
    <style>
      .cls-1, .cls-4 {
        fill: none;
      }

      .cls-1 {
        stroke: #fff;
      }

      .cls-2 {
        fill: #fff;
      }

      .cls-3 {
        stroke: none;
      }
    </style>
  </defs>
  <g id="Group_1" data-name="Group 1" transform="translate(-351.503 -998.996)">
    <g id="Rectangle_12" data-name="Rectangle 12" class="cls-1" transform="translate(351.503 998.996)">
      <rect class="cls-3" width="31" height="31" rx="7"/>
      <rect class="cls-4" x="0.5" y="0.5" width="30" height="30" rx="6.5"/>
    </g>
    <g id="vk-social-network-logo" transform="translate(362.879 1012.351)">
      <path id="Path_14" data-name="Path 14" class="cls-2" d="M15.734,125.9a1.081,1.081,0,0,0-.054-.1,8.2,8.2,0,0,0-1.573-1.82l-.016-.016-.008-.008-.008-.008h-.008q-.527-.5-.667-.675a.634.634,0,0,1-.116-.667,6.221,6.221,0,0,1,.741-1.079q.338-.437.535-.7,1.425-1.894,1.235-2.421l-.049-.082a.481.481,0,0,0-.255-.136,1.3,1.3,0,0,0-.527-.021l-2.372.016a.308.308,0,0,0-.165,0l-.107.025-.041.021-.033.025a.367.367,0,0,0-.091.086.566.566,0,0,0-.082.144,13.449,13.449,0,0,1-.881,1.853q-.3.511-.56.885a4.262,4.262,0,0,1-.428.552,2.989,2.989,0,0,1-.313.284q-.14.107-.214.091l-.14-.033a.548.548,0,0,1-.185-.2.9.9,0,0,1-.095-.321q-.025-.194-.029-.334t0-.4q.009-.255.008-.346,0-.313.012-.68t.021-.58q.008-.214.008-.453a1.9,1.9,0,0,0-.029-.375,1.281,1.281,0,0,0-.086-.264.444.444,0,0,0-.169-.2.952.952,0,0,0-.276-.111,5.48,5.48,0,0,0-1.112-.107,5.4,5.4,0,0,0-1.968.2,1.11,1.11,0,0,0-.313.247q-.148.181-.041.2a1.009,1.009,0,0,1,.7.354l.049.1a1.575,1.575,0,0,1,.115.379,3.823,3.823,0,0,1,.074.6,6.411,6.411,0,0,1,0,1.03q-.041.428-.078.667a1.336,1.336,0,0,1-.111.387,1.635,1.635,0,0,1-.1.181.142.142,0,0,1-.041.041.617.617,0,0,1-.222.041.522.522,0,0,1-.28-.115,1.975,1.975,0,0,1-.342-.317,4.235,4.235,0,0,1-.4-.564q-.222-.362-.461-.856l-.132-.239q-.124-.231-.338-.671t-.379-.853a.543.543,0,0,0-.2-.263l-.041-.025a.563.563,0,0,0-.132-.07.874.874,0,0,0-.189-.053l-2.257.016a.574.574,0,0,0-.469.157l-.033.049A.266.266,0,0,0,0,118.5a.656.656,0,0,0,.049.222q.494,1.161,1.075,2.24T2.133,122.7q.428.659.873,1.244t.589.749q.144.165.227.247l.206.2a4.884,4.884,0,0,0,.581.474,9.909,9.909,0,0,0,.848.544,4.6,4.6,0,0,0,1.083.436,3.746,3.746,0,0,0,1.2.136h.947a.656.656,0,0,0,.437-.181l.033-.041a.546.546,0,0,0,.062-.152.837.837,0,0,0,.029-.226,2.714,2.714,0,0,1,.053-.638,1.679,1.679,0,0,1,.14-.428,1.053,1.053,0,0,1,.177-.243.716.716,0,0,1,.14-.119.532.532,0,0,1,.066-.029.523.523,0,0,1,.465.128,2.735,2.735,0,0,1,.5.478q.235.284.564.638a3.879,3.879,0,0,0,.576.527l.165.1a2.005,2.005,0,0,0,.428.181.923.923,0,0,0,.461.041l2.108-.033a.955.955,0,0,0,.486-.1.408.408,0,0,0,.206-.227.638.638,0,0,0,0-.28A1.033,1.033,0,0,0,15.734,125.9Z" transform="translate(-3.376 -120.104)"/>
    </g>
  </g>
</svg>
