<svg width="64" height="64" viewBox="0 0 64 64" fill="none" xmlns="http://www.w3.org/2000/svg">
<path d="M32 64C49.6731 64 64 49.6731 64 32C64 14.3269 49.6731 0 32 0C14.3269 0 0 14.3269 0 32C0 49.6731 14.3269 64 32 64Z" fill="#F8DF67"/>
<path fill-rule="evenodd" clip-rule="evenodd" d="M36.9262 22.7718C37.6432 22.1166 38 21.3197 38 20.3866C38 19.4556 37.6437 18.6572 36.9262 17.9936C36.2111 17.3319 35.3491 17 34.3412 17C33.3302 17 32.4647 17.3311 31.7427 17.9936C31.0207 18.6572 30.6589 19.4554 30.6589 20.3866C30.6589 21.3197 31.0207 22.1163 31.7427 22.7718C32.4661 23.4294 33.3299 23.7584 34.3412 23.7584C35.3493 23.7584 36.2111 23.4294 36.9262 22.7718ZM37.1997 44.5268L37.6108 42.8704C37.398 42.9689 37.0549 43.0815 36.5845 43.2096C36.1127 43.3377 35.6882 43.403 35.315 43.403C34.5203 43.403 33.9607 43.2746 33.6358 43.0165C33.3133 42.7584 33.1525 42.2729 33.1525 41.5618C33.1525 41.28 33.201 40.86 33.3025 40.3103C33.4009 39.757 33.514 39.2652 33.6398 38.8351L35.1745 33.4796C35.3248 32.9881 35.4279 32.4478 35.4833 31.858C35.54 31.2696 35.5663 30.8579 35.5663 30.6242C35.5663 29.4949 35.1647 28.5785 34.3612 27.8715C33.5578 27.1651 32.4136 26.8119 30.9308 26.8119C30.1057 26.8119 29.2334 26.9564 28.3102 27.2451C27.387 27.5331 26.4219 27.8801 25.4122 28.2853L25 29.943C25.3009 29.8333 25.6592 29.7153 26.0785 29.5932C26.496 29.4715 26.9055 29.4086 27.3039 29.4086C28.1174 29.4086 28.6654 29.5453 28.9526 29.8146C29.2397 30.0847 29.384 30.565 29.384 31.2517C29.384 31.6314 29.3383 32.0532 29.2437 32.5117C29.1503 32.973 29.0338 33.4609 28.8967 33.9758L27.3553 39.3528C27.2182 39.9178 27.118 40.4234 27.055 40.8722C26.9925 41.3206 26.9624 41.7606 26.9624 42.1884C26.9624 43.2936 27.3767 44.2045 28.205 44.9235C29.0332 45.6395 30.1946 46 31.6876 46C32.6599 46 33.5132 45.8747 34.2476 45.6229C34.9812 45.3718 35.9664 45.0066 37.1997 44.5268Z" fill="#3F3E37"/>
</svg>
