<svg width="33" height="31" viewBox="0 0 33 31" fill="none" xmlns="http://www.w3.org/2000/svg">
<path fill-rule="evenodd" clip-rule="evenodd" d="M3.39717 2.73529H29.6031C32.8383 2.73529 32.8383 7.29411 29.6031 7.29411H3.39717C0.16188 7.29411 0.16188 2.73529 3.39717 2.73529ZM3.39717 13.6765H29.6031C32.8383 13.6765 32.8383 18.2353 29.6031 18.2353H3.39717C0.16188 18.2353 0.16188 13.6765 3.39717 13.6765ZM29.6031 24.6176H11.1619C7.92659 24.6176 7.92659 29.1765 11.1619 29.1765H29.6031C32.8383 29.1765 32.8383 24.6176 29.6031 24.6176Z" fill="#302F44"/>
<mask id="mask0" mask-type="alpha" maskUnits="userSpaceOnUse" x="0" y="2" width="33" height="28">
<path fill-rule="evenodd" clip-rule="evenodd" d="M3.39717 2.73529H29.6031C32.8383 2.73529 32.8383 7.29411 29.6031 7.29411H3.39717C0.16188 7.29411 0.16188 2.73529 3.39717 2.73529ZM3.39717 13.6765H29.6031C32.8383 13.6765 32.8383 18.2353 29.6031 18.2353H3.39717C0.16188 18.2353 0.16188 13.6765 3.39717 13.6765ZM29.6031 24.6176H11.1619C7.92659 24.6176 7.92659 29.1765 11.1619 29.1765H29.6031C32.8383 29.1765 32.8383 24.6176 29.6031 24.6176Z" fill="white"/>
</mask>
<g mask="url(#mask0)">
<rect width="33" height="31" fill="#9C9CA1"/>
</g>
</svg>
