<svg width="119" height="119" viewBox="0 0 119 119" fill="none" xmlns="http://www.w3.org/2000/svg">
<path fill-rule="evenodd" clip-rule="evenodd" d="M0 59.5C0 26.639 26.6395 0 59.5 0C92.3605 0 119 26.639 119 59.5C119 92.361 92.3605 119 59.5 119C26.6395 119 0 92.361 0 59.5ZM50.3147 81.2477L80.0647 62.654C81.1515 61.9732 81.8125 60.7818 81.8125 59.5C81.8125 58.2182 81.1515 57.027 80.0647 56.346L50.3147 37.7523C49.1682 37.035 47.7227 36.9951 46.5406 37.6542C45.3585 38.3096 44.625 39.5536 44.625 40.9062V78.0938C44.625 79.4464 45.3585 80.6904 46.5406 81.3458C47.1026 81.6582 47.7236 81.8125 48.3438 81.8125C49.0282 81.8125 49.7127 81.6235 50.3147 81.2477Z" fill="white"/>
</svg>
