<svg width="68" height="57" viewBox="0 0 68 57" fill="none" xmlns="http://www.w3.org/2000/svg">
<g opacity="0.2">
<path fill-rule="evenodd" clip-rule="evenodd" d="M23.2504 0H7.75014C5.59707 0 3.76734 0.755769 2.26009 2.26688C0.753553 3.77828 0 5.61339 0 7.77293V23.3182C0 25.4776 0.753129 27.3125 2.26009 28.8236C3.7672 30.3345 5.5975 31.0906 7.75014 31.0906H16.7918C17.8678 31.0906 18.783 31.4686 19.5365 32.2241C20.2901 32.9792 20.6667 33.8973 20.6667 34.9773V36.2721C20.6667 39.1331 19.6574 41.5748 17.6394 43.5994C15.6212 45.6229 13.186 46.635 10.3331 46.635H7.75014C7.05003 46.635 6.44478 46.8921 5.93327 47.4046C5.42219 47.917 5.16643 48.5245 5.16643 49.2262V54.4087C5.16643 55.1093 5.42219 55.7179 5.93327 56.2305C6.44521 56.7428 7.04989 57 7.75014 57H10.3333C13.1322 57 15.803 56.4527 18.3461 55.36C20.8891 54.2672 23.0888 52.7891 24.9457 50.9268C26.8022 49.0643 28.2756 46.8585 29.3654 44.3079C30.455 41.7574 31 39.0789 31 36.2722V7.77237C31 5.61282 30.2464 3.77785 28.7398 2.26674C27.2331 0.755627 25.4029 0 23.2504 0Z" fill="black"/>
<path fill-rule="evenodd" clip-rule="evenodd" d="M65.739 2.26688C64.2325 0.755769 62.4025 0 60.2494 0H44.7494C42.5963 0 40.7666 0.755769 39.2599 2.26688C37.7533 3.77842 37 5.61339 37 7.77293V23.3182C37 25.4776 37.7533 27.3125 39.2599 28.8236C40.7666 30.3345 42.5965 31.0906 44.7494 31.0906H53.7912C54.8673 31.0906 55.7832 31.4686 56.5366 32.2241C57.2893 32.9796 57.6668 33.8973 57.6668 34.9773V36.2721C57.6668 39.1331 56.6575 41.5748 54.639 43.5994C52.6209 45.6229 50.1863 46.635 47.3331 46.635H44.7494C44.0499 46.635 43.4441 46.8921 42.9331 47.4046C42.4217 47.917 42.1657 48.5245 42.1657 49.2262V54.4087C42.1657 55.1093 42.4217 55.7179 42.9331 56.2305C43.4439 56.7428 44.0497 57 44.7494 57H47.3331C50.1316 57 52.8023 56.4527 55.3457 55.36C57.8884 54.2672 60.0878 52.7891 61.9449 50.9268C63.8018 49.0643 65.2761 46.8579 66.3652 44.3079C67.4547 41.758 68 39.0789 68 36.2722V7.77237C67.9996 5.61282 67.2467 3.77785 65.739 2.26688Z" fill="black"/>
</g>
</svg>
